HIERARCHY
ROOT Hips
{
	OFFSET 0.00000 0.00000 0.00000
	CHANNELS 6 Xposition Yposition Zposition Zrotation Yrotation Xrotation 
	JOINT LHipJoint
	{
		OFFSET 0 0 0
		CHANNELS 3 Zrotation Yrotation Xrotation
		JOINT LeftHip
		{
			OFFSET 1.56741 -1.82513 0.67319
			CHANNELS 3 Zrotation Yrotation Xrotation
			JOINT LeftKnee
			{
				OFFSET 2.35708 -6.47604 0.00000
				CHANNELS 3 Zrotation Yrotation Xrotation
				JOINT LeftAnkle
				{
					OFFSET 2.70636 -7.43567 0.00000
					CHANNELS 3 Zrotation Yrotation Xrotation
					JOINT LeftToe
					{
						OFFSET 0.20427 -0.56122 2.08535
						CHANNELS 3 Zrotation Yrotation Xrotation
						End Site
						{
							OFFSET 0.00000 -0.00000 1.08535
						}
					}
				}
			}
		}
	}
	JOINT RHipJoint
	{
		OFFSET 0 0 0
		CHANNELS 3 Zrotation Yrotation Xrotation
		JOINT RightHip
		{
			OFFSET -1.51422 -1.82513 0.67319
			CHANNELS 3 Zrotation Yrotation Xrotation
			JOINT RightKnee
			{
				OFFSET -2.48824 -6.83638 0.00000
				CHANNELS 3 Zrotation Yrotation Xrotation
				JOINT RightAnkle
				{
					OFFSET -2.70033 -7.41909 0.00000
					CHANNELS 3 Zrotation Yrotation Xrotation
					JOINT RightToe
					{
						OFFSET -0.19750 -0.54263 2.22151
						CHANNELS 3 Zrotation Yrotation Xrotation
						End Site
						{
							OFFSET -0.00000 -0.00000 1.14915
						}
					}
				}
			}
		}
	}
	JOINT lowerback
	{
		OFFSET 0 0 0
		CHANNELS 3 Zrotation Yrotation Xrotation
		JOINT Chest
		{
			OFFSET -0.01567 2.12874 -0.15842
			CHANNELS 3 Zrotation Yrotation Xrotation
			JOINT Chest2
			{
				OFFSET 0.06098 2.13326 -0.01043
				CHANNELS 3 Zrotation Yrotation Xrotation
				JOINT lowerneck
				{
					OFFSET 0 0 0
					CHANNELS 3 Zrotation Yrotation Xrotation
					JOINT Neck
					{
						OFFSET -0.05040 1.78432 0.13387
						CHANNELS 3 Zrotation Yrotation Xrotation
						JOINT Head
						{
							OFFSET -0.00180 1.76880 -0.33303
							CHANNELS 3 Zrotation Yrotation Xrotation
							End Site
							{
								OFFSET 0.00734 1.81249 -0.12719
							}
						}
					}
				}
				JOINT LeftCollar
				{
					OFFSET 0 0 0
					CHANNELS 3 Zrotation Yrotation Xrotation
					JOINT LeftShoulder
					{
						OFFSET 3.72199 0.94188 -0.54317
CHANNELS 3 Zrotation Xrotation Yrotation
						JOINT LeftElbow
						{
OFFSET 0 -5.146010 0.000000
CHANNELS 3 Zrotation Xrotation Yrotation
							JOINT LeftWrist
							{
OFFSET 0 -3.644520 -0.000000
CHANNELS 3 Zrotation Xrotation Yrotation
								JOINT lhand
								{
									OFFSET 0 0 0
CHANNELS 3 Zrotation Xrotation Yrotation
									JOINT LFingers
									{
OFFSET 0 -0.562280 0.000000
CHANNELS 3 Zrotation Xrotation Yrotation
										End Site
										{
OFFSET 0 -0.453320 0.000000
										}
									}
								}
								JOINT LThumb
								{
OFFSET 0 0.000000 0.000000
CHANNELS 3 Zrotation Xrotation Yrotation
									End Site
									{
OFFSET 0 -0.460250 0.460250
									}
								}
							}
						}
					}
				}
				JOINT RightCollar
				{
					OFFSET 0 0 0
					CHANNELS 3 Zrotation Yrotation Xrotation
					JOINT RightShoulder
					{
						OFFSET -3.30253 1.22679 -0.46941
CHANNELS 3 Zrotation Xrotation Yrotation
						JOINT RightElbow
						{
OFFSET 0 -5.339130 0.000000
CHANNELS 3 Zrotation Xrotation Yrotation
							JOINT RightWrist
							{
OFFSET 0 -3.564780 -0.000000
CHANNELS 3 Zrotation Xrotation Yrotation
								JOINT rhand
								{
									OFFSET 0 0 0
CHANNELS 3 Zrotation Xrotation Yrotation
									JOINT RFingers
									{
OFFSET 0 -0.857470 0.000000
CHANNELS 3 Zrotation Xrotation Yrotation
										End Site
										{
OFFSET 0 -0.691320 0.000000
										}
									}
								}
								JOINT RThumb
								{
OFFSET 0 0.000000 0.000000
CHANNELS 3 Zrotation Xrotation Yrotation
									End Site
									{
OFFSET 0 -0.701870 0.701870
									}
								}
							}
						}
					}
				}
			}
		}
	}
}
MOTION
Frames: 10
Frame Time: 0.008333333333333333
6.212222 17.538631 -0.940353 -8.008614 -163.530586 2.026495 0.000000 0.000000 0.000000 -4.089016 -8.920392 -10.801727 0.840673 5.848525 16.345545 0.054924 1.234309 4.168775 0.744288 -5.510555 -15.370847 0.000000 0.000000 0.000000 3.473139 5.986723 -14.858093 -4.531569 -12.835987 38.757659 -0.878233 -0.948691 -18.073378 -0.350346 3.802353 -10.521359 0.121870 2.677208 11.926649 0.137917 3.435082 1.760369 -0.463956 1.631980 -4.833676 -5.588064 3.736006 -15.245237 -0.697211 5.660900 31.749522 1.409611 1.071104 13.027345 0.000000 0.000000 0.000000 16.843644 11.684819 -30.556216 29.019836 -40.038254 10.773489 -9.129535 -25.456660 -18.877976 0.000000 0.000000 0.000000 -7.125000 0.000000 0.000000 -34.355206 45.765307 0.737425 0.000000 0.000000 0.000000 -25.874288 0.290767 19.990061 -29.154673 -40.157739 -10.860365 23.171452 7.313282 -9.406368 0.000000 0.000000 0.000000 7.125000 0.000000 0.000000 33.414214 19.656257 24.827072
5.312065 17.305259 -1.111165 -5.654900 -168.075020 0.962158 0.000000 0.000000 0.000000 -2.815652 -10.825962 -9.162693 0.993633 6.343895 17.785515 -0.030607 -6.603051 8.615379 1.491381 -7.666492 -21.730615 0.000000 0.000000 0.000000 2.917169 8.477957 -14.552184 -4.798704 -13.153455 39.945716 -0.952930 -0.463292 -18.626906 -0.937891 6.166067 -17.267786 1.148921 3.188582 12.164155 1.061296 4.305188 1.470735 -0.236990 2.043654 -5.260435 -5.689768 3.489381 -16.072089 -0.202316 5.207145 32.259852 1.570616 0.876852 13.409816 0.000000 0.000000 0.000000 16.489368 12.930276 -31.363642 28.902518 -39.933874 10.698080 -9.877691 -26.142672 -21.385048 0.000000 0.000000 0.000000 -7.125000 0.000000 0.000000 -36.412291 47.754720 2.839487 0.000000 0.000000 0.000000 -26.043887 -0.220125 20.724930 -29.581364 -40.531815 -11.136545 23.666254 7.665439 -9.471723 0.000000 0.000000 0.000000 7.125000 0.000000 0.000000 33.655364 19.528768 25.222845
4.134590 17.073252 -1.168488 -3.469541 -171.040594 0.185902 0.000000 0.000000 0.000000 -4.331546 -10.629775 -10.498197 2.065843 9.000285 25.797393 -0.144376 -9.943926 -4.168881 3.282683 -11.139121 -32.750505 0.000000 0.000000 0.000000 0.923181 8.937048 -13.656361 -4.528154 -12.831701 38.742080 -0.910340 2.298114 -17.400358 -0.855550 5.898230 -16.489606 1.168046 2.658284 12.397322 2.526031 3.663178 1.214959 1.374529 1.720478 -5.762659 -5.251433 3.217081 -17.294475 0.509613 4.441728 33.162297 1.686668 0.615025 14.078670 0.000000 0.000000 0.000000 16.048853 11.751308 -33.967454 28.588154 -39.652019 10.496869 -10.506551 -26.345721 -18.271533 0.000000 0.000000 0.000000 -7.125000 0.000000 0.000000 -35.153624 45.077583 0.076812 0.000000 0.000000 0.000000 -27.008974 -0.774459 19.908789 -29.624560 -40.569430 -11.164629 23.221817 7.713763 -9.657754 0.000000 0.000000 0.000000 7.125000 0.000000 0.000000 33.377735 19.423723 25.010060
2.878718 17.108852 -1.021696 0.728971 -174.635389 -0.245127 0.000000 0.000000 0.000000 -4.266892 -8.757218 -14.132465 3.391889 11.303752 33.311480 0.329092 -8.375180 -10.999197 3.132045 -10.905797 -31.962846 0.000000 0.000000 0.000000 0.735484 10.292851 -11.926063 -3.283572 -11.139628 32.753176 -0.320889 5.154613 -10.161282 -1.494571 7.722651 -21.874756 2.062204 2.062195 13.254560 4.980210 2.964888 1.300193 3.580636 1.289846 -6.226156 -5.192860 2.514184 -18.644439 1.671576 3.011296 33.507088 1.936310 0.144204 14.555457 0.000000 0.000000 0.000000 16.121920 8.314759 -36.750819 27.400541 -38.558179 9.747882 -10.108847 -27.793041 -21.739138 0.000000 0.000000 0.000000 -7.125000 0.000000 0.000000 -36.827210 48.015064 3.147800 0.000000 0.000000 0.000000 -27.511475 -1.353409 17.427875 -29.479350 -40.442797 -11.070334 22.802364 8.296666 -10.112406 0.000000 0.000000 0.000000 7.125000 0.000000 0.000000 33.045203 19.068562 24.971681
1.848087 17.380070 -0.806836 3.180668 -179.140503 0.595950 0.000000 0.000000 0.000000 -5.775020 -6.656274 -14.096760 3.184765 10.988368 32.240642 0.500710 -4.939921 -12.597464 1.761298 -8.347999 -23.777343 0.000000 0.000000 0.000000 0.196742 9.909449 -12.495785 -2.214116 -9.298462 26.733445 0.023796 6.799333 -4.154684 -0.171163 2.508506 -6.921957 1.054902 1.557834 13.234034 6.615467 2.067225 1.241932 6.107169 0.823196 -6.336625 -3.411863 3.187182 -17.987406 0.911376 3.145780 34.822023 1.303506 0.127616 15.064887 0.000000 0.000000 0.000000 19.036533 6.151202 -38.505692 27.455695 -38.610276 9.782151 -7.415215 -26.605467 -20.327098 0.000000 0.000000 0.000000 -7.125000 0.000000 0.000000 -33.725414 47.218293 2.075864 0.000000 0.000000 0.000000 -26.700807 -1.999818 18.499649 -29.351210 -40.330762 -10.987326 21.921383 7.862807 -10.425221 0.000000 0.000000 0.000000 7.125000 0.000000 0.000000 32.501867 18.894019 24.525041
1.209916 17.765166 -0.478106 4.972674 -181.360120 0.995704 0.000000 0.000000 0.000000 -6.278005 -6.433198 -13.303522 2.600103 10.017336 29.033121 0.278436 -1.921772 -9.479684 1.287680 -7.182622 -20.260973 0.000000 0.000000 0.000000 2.585134 6.748012 -16.137149 -3.211906 -11.029945 32.381404 -0.239224 1.879309 -8.774941 -0.317287 3.620700 -10.011823 0.856468 0.018386 13.875324 7.034414 1.326502 1.528284 6.765677 1.018833 -6.339379 -2.588783 0.541777 -17.648643 -0.285124 4.838907 34.693128 1.451707 2.631552 15.004663 0.000000 0.000000 0.000000 23.069319 3.099845 -36.415442 27.562492 -38.710380 9.848901 -6.061508 -26.756555 -15.921702 0.000000 0.000000 0.000000 -7.125000 0.000000 0.000000 -30.350663 43.605345 -1.157911 0.000000 0.000000 0.000000 -24.878128 -0.791539 20.358590 -30.517309 -41.332673 -11.749771 22.651414 8.011721 -10.184310 0.000000 0.000000 0.000000 7.125000 0.000000 0.000000 32.948051 19.022780 24.905225
0.843527 17.878239 -0.091436 4.520163 -183.129890 1.572944 0.000000 0.000000 0.000000 -7.753849 -4.911219 -12.611196 1.905813 8.666936 24.758930 0.135761 -2.769308 -6.552332 0.814260 -5.757730 -16.083248 0.000000 0.000000 0.000000 2.945530 4.795564 -17.223461 -5.175229 -13.578353 41.574077 -0.192917 2.089748 -7.834579 -0.081930 1.840597 -5.065470 0.208816 -0.074547 13.183056 6.373196 0.898514 1.452047 6.493713 0.753472 -5.978492 -2.747107 0.700435 -17.506511 -0.752378 5.355501 34.892119 1.380221 2.767679 15.078804 0.000000 0.000000 0.000000 25.406856 0.187637 -34.984328 27.509308 -38.660558 9.815689 -10.140319 -30.141722 -21.315066 0.000000 0.000000 0.000000 -7.125000 0.000000 0.000000 -36.591508 47.661097 2.759131 0.000000 0.000000 0.000000 -24.012060 1.041884 21.053184 -30.766663 -41.541581 -11.914825 23.663793 6.670514 -8.519590 0.000000 0.000000 0.000000 7.125000 0.000000 0.000000 33.899905 20.387017 24.651894
0.692643 17.816455 0.278460 3.598068 -182.241623 1.581406 0.000000 0.000000 0.000000 -8.442041 -5.029097 -10.749757 1.185965 6.910925 19.451683 0.059634 -6.601968 -6.004220 1.092767 -6.641513 -18.658117 0.000000 0.000000 0.000000 3.063482 2.073068 -14.525727 -6.730091 -15.100300 47.845963 -0.131894 2.187690 -6.449030 -0.182626 2.752012 -7.589263 -0.221290 -0.615359 11.934199 5.532320 -0.108657 1.038804 5.992566 0.191520 -5.602192 -2.567331 0.912397 -17.616105 -1.124092 5.681589 34.699822 1.247103 2.865659 15.032258 0.000000 0.000000 0.000000 25.455146 -1.240416 -35.505649 27.447427 -38.602564 9.776940 -9.854008 -31.667107 -20.735027 0.000000 0.000000 0.000000 -7.125000 0.000000 0.000000 -36.005328 47.221471 2.259307 0.000000 0.000000 0.000000 -23.660318 3.980562 19.980801 -30.905840 -41.657215 -12.007160 23.593256 6.919684 -9.881520 0.000000 0.000000 0.000000 7.125000 0.000000 0.000000 33.515792 19.173251 25.408769
0.835276 17.607653 0.803055 3.372778 -181.225362 1.044082 0.000000 0.000000 0.000000 -7.404126 -3.568572 -16.165503 1.847107 8.539495 24.365487 -0.272419 -12.278024 -4.183424 1.095748 -6.651192 -18.686357 0.000000 0.000000 0.000000 5.370944 0.894776 -9.680695 -7.364644 -15.631415 50.240245 -0.134700 4.852812 -6.884590 -0.335458 3.722080 -10.296034 -0.736833 -1.010598 12.069591 4.949632 -0.807296 0.715899 5.792082 -0.171884 -5.944204 -2.207971 1.271526 -17.920249 -1.863865 6.291386 34.384246 0.984163 3.049367 14.999984 0.000000 0.000000 0.000000 24.305255 -1.498341 -35.401314 27.417939 -38.574818 9.758587 -10.449046 -32.024916 -21.797596 0.000000 0.000000 0.000000 -7.125000 0.000000 0.000000 -37.144101 48.014133 3.179426 0.000000 0.000000 0.000000 -22.361450 5.622504 17.834219 -29.750548 -40.678427 -11.246777 23.869301 6.825446 -10.054712 0.000000 0.000000 0.000000 7.125000 0.000000 0.000000 33.615450 18.979725 25.711512
1.157065 17.276638 1.460639 2.924615 -183.265437 0.566390 0.000000 0.000000 0.000000 -5.785957 -3.960427 -21.603961 2.934415 10.587815 30.902285 -0.363176 -12.783660 -2.929674 0.553518 -4.762802 -13.233835 0.000000 0.000000 0.000000 7.863457 1.164261 -5.094531 -6.513409 -14.907487 47.007864 0.120042 12.001322 -6.628352 -1.208333 6.965545 -19.616772 -0.306779 -0.051419 12.121046 3.946311 0.388525 0.787422 4.265752 0.358843 -6.010252 -2.628020 1.383235 -18.510986 -2.182817 6.788614 34.416608 1.033528 3.153954 15.160679 0.000000 0.000000 0.000000 23.117860 -1.100819 -35.401097 27.838402 -38.966961 10.021898 -10.816747 -31.938753 -21.116524 0.000000 0.000000 0.000000 -7.125000 0.000000 0.000000 -37.035143 47.400726 2.533863 0.000000 0.000000 0.000000 -22.197087 6.655085 19.255011 -29.278176 -40.266536 -10.940061 23.326038 6.229126 -10.601618 0.000000 0.000000 0.000000 7.125000 0.000000 0.000000 33.202299 18.558769 25.624837
